<?xml version="1.0" encoding="UTF-8"?>
<!DOCTYPE svg PUBLIC "-//W3C//DTD SVG 1.0//EN" "http://www.w3.org/TR/2001/REC-SVG-20010904/DTD/svg10.dtd">
<!-- Creator: CorelDRAW X7 -->
<svg xmlns="http://www.w3.org/2000/svg" xml:space="preserve" width="23.8541in" height="18.4024in" version="1.0" style="shape-rendering:geometricPrecision; text-rendering:geometricPrecision; image-rendering:optimizeQuality; fill-rule:evenodd; clip-rule:evenodd"
viewBox="0 0 18021 13903"
 xmlns:xlink="http://www.w3.org/1999/xlink">
 <defs>
  <style type="text/css">
   <![CDATA[
    .fil11 {fill:#0B0754}
    .fil0 {fill:#4951EC}
    .fil4 {fill:#7C9AF2}
    .fil1 {fill:#92B5F9}
    .fil5 {fill:#BED1F9}
    .fil7 {fill:#E8605D}
    .fil8 {fill:#EF7F7F}
    .fil10 {fill:#F47458}
    .fil9 {fill:#F7A491}
    .fil3 {fill:#FA7167}
    .fil6 {fill:#FB9390}
    .fil2 {fill:white}
   ]]>
  </style>
 </defs>
 <g id="Layer_x0020_1">
  <metadata id="CorelCorpID_0Corel-Layer"/>
  <g id="_1164757911408">
   <path class="fil0" d="M17962 13785l-17901 0c-32,0 -59,24 -61,55 -2,34 25,63 59,63l17903 0c33,0 59,-27 59,-59 0,-33 -26,-59 -59,-59z"/>
   <path class="fil1" d="M6649 2508c-491,206 -1057,-26 -1263,-517 -206,-491 26,-1057 517,-1263 491,-206 1057,26 1263,517 206,491 -26,1057 -517,1263z"/>
   <path class="fil1" d="M6639 2485c-478,200 -1029,-26 -1230,-504 -200,-478 26,-1029 504,-1230 478,-200 1029,26 1230,504 200,478 -26,1029 -504,1230z"/>
   <path class="fil2" d="M6985 1325c164,391 -20,841 -411,1005 -391,164 -840,-20 -1004,-411 -164,-391 20,-841 411,-1005 391,-163 841,21 1004,411z"/>
   <path class="fil2" d="M6557 2289c-370,155 -797,-19 -952,-389 -155,-370 20,-797 390,-952 370,-156 797,19 952,389 155,370 -20,797 -390,952z"/>
   <path class="fil1" d="M5681 1826l-121 50c-19,9 -29,31 -20,51 8,20 31,29 50,21l121 -50c19,-9 29,-32 20,-51 -8,-20 -31,-29 -50,-21z"/>
   <path class="fil1" d="M6505 2163c-20,8 -30,31 -21,51l50 120c8,20 31,29 51,21 20,-8 29,-31 21,-51l-51 -120c-8,-20 -31,-29 -50,-21z"/>
   <path class="fil1" d="M6962 1289l-120 50c-20,9 -29,31 -21,51 8,20 31,29 51,21l120 -50c20,-9 29,-32 21,-51 -9,-20 -31,-29 -51,-21z"/>
   <path class="fil1" d="M5968 882c-20,8 -30,31 -21,51l50 120c8,20 31,29 51,21 20,-9 29,-31 21,-51l-51 -120c-8,-20 -31,-29 -50,-21z"/>
   <path class="fil1" d="M6237 555l11 -152c1,-13 12,-22 24,-21l175 12c13,1 22,12 21,24l-11 153c0,12 -11,22 -24,21l-175 -13c-12,0 -21,-11 -21,-24z"/>
   <path class="fil1" d="M5556 845l-116 -99c-10,-8 -24,-7 -32,2l-114 134c-8,9 -7,23 2,32l116 99c10,8 24,7 32,-3l114 -133c8,-10 7,-24 -2,-32z"/>
   <path class="fil1" d="M5743 595c-11,5 -24,0 -29,-11l-42 -102c-5,-11 0,-24 11,-29l207 -86c12,-5 24,0 29,11l43 102c4,11 -1,24 -12,29l-207 86z"/>
   <path class="fil1" d="M5797 632c-101,8 -199,-49 -241,-147 -51,-123 7,-265 130,-317 123,-51 264,7 316,130 41,98 12,209 -64,275l23 55c105,-80 147,-225 93,-352 -63,-152 -239,-224 -390,-160 -152,63 -224,239 -160,391 53,127 185,198 316,180l-23 -55z"/>
   <path class="fil1" d="M5896 710c24,-10 48,-19 73,-27l-62 -146 -114 48 60 144c14,-6 28,-13 43,-19z"/>
   <path class="fil1" d="M6341 1590c15,36 -1,77 -38,92 -36,15 -77,-2 -92,-38 -15,-36 2,-77 38,-92 36,-15 77,2 92,38z"/>
   <path class="fil1" d="M6351 1038l-50 582c-1,15 -14,25 -29,24 -15,-1 -25,-14 -24,-29 0,-2 -4,24 103,-577z"/>
   <path class="fil1" d="M6788 1905l-522 -262c-13,-7 -19,-23 -12,-36 7,-13 23,-18 36,-12 2,1 -20,-12 498,310z"/>
   <path class="fil1" d="M6303 1606c6,15 -1,31 -16,38 -14,6 -31,-1 -38,-16 -6,-15 1,-32 16,-38 15,-6 32,1 38,16z"/>
   <path class="fil3" d="M14026 5891c220,-45 362,-259 317,-479 -44,-219 -258,-362 -478,-317 -219,44 -362,258 -317,478 44,220 258,362 478,318zm-31 -156c133,-27 220,-157 193,-291 -27,-134 -157,-221 -291,-194 -134,27 -221,158 -194,292 27,134 158,220 292,193zm-542 60c-7,-8 -18,-11 -29,-8 -50,14 -143,-7 -188,-23l-50 -246c36,-32 113,-87 165,-94 11,-2 20,-9 23,-19l63 -187c4,-11 1,-22 -7,-29 -37,-38 -66,-128 -74,-175l188 -167c46,15 132,55 164,96 7,9 17,13 28,11l194 -39c10,-2 19,-10 21,-21 14,-51 78,-120 114,-152l239 80c10,47 19,142 -2,190 -4,10 -2,22 5,30l131 148c7,8 18,11 29,9 51,-14 143,6 189,22l49 246c-36,33 -113,88 -165,95 -11,1 -20,8 -23,19l-63 187c-3,10 -1,21 7,29 37,37 66,127 75,175l-189 166c-46,-15 -132,-54 -164,-96 -7,-9 -17,-13 -28,-11l-193 40c-11,2 -19,10 -22,20 -14,51 -78,121 -114,152l-238 -80c-10,-47 -19,-141 1,-190 4,-10 2,-21 -5,-29l-131 -149z"/>
   <path class="fil3" d="M15104 6442c-131,26 -260,-59 -287,-191 -26,-132 59,-260 191,-287 132,-27 260,59 287,191 27,132 -59,260 -191,287zm-52 235c2,-9 9,-15 17,-17l153 -30c8,-2 17,1 22,8 26,33 94,64 130,76l150 -132c-8,-37 -30,-109 -60,-138 -6,-6 -8,-15 -5,-23l50 -148c2,-9 9,-14 18,-16 41,-5 102,-48 131,-74l-40 -195c-36,-13 -109,-29 -149,-18 -8,2 -17,0 -23,-7l-103 -117c-6,-6 -7,-16 -4,-23 16,-39 9,-114 1,-151l-189 -63c-29,25 -79,80 -90,120 -2,8 -9,15 -17,16l-154 31c-8,2 -17,-1 -22,-8 -25,-33 -93,-64 -130,-76l-149 131c7,38 30,110 59,139 6,6 8,15 6,23l-50 148c-3,8 -10,14 -18,15 -42,6 -103,49 -131,75l39 195c36,12 109,29 150,18 8,-2 17,0 22,7l104 117c5,6 7,15 4,23 -16,39 -9,113 -1,151l188 63c29,-25 80,-80 91,-120z"/>
   <path class="fil1" d="M4278 3579l-170 -64 -149 104c-17,11 -41,-1 -40,-22l9 -182 -145 -110c-17,-12 -12,-38 8,-44l176 -48 60 -172c6,-19 33,-23 44,-5l100 152 182 3c21,1 32,25 19,41l-114 142 53 174c6,20 -13,38 -33,31z"/>
   <path class="fil4" d="M4539 2491l-93 -248 -237 71 -102 -241 -234 40 -106 -168 -85 54 142 224 222 -38 106 251 233 -70 84 225 70 -100z"/>
   <path class="fil5" d="M14487 3635l-232 -127 -133 208 -234 -115 -152 184 -190 -58 -29 96 254 77 143 -174 245 120 130 -205 211 116 -13 -122z"/>
   <path class="fil1" d="M8358 504l-100 246 223 107 -87 247 200 129 -36 195 99 18 47 -261 -189 -122 91 -257 -219 -106 90 -222 -119 26z"/>
   <path class="fil3" d="M14221 6840l-49 -97 -110 4 -47 -112 -116 40 -59 -124 -111 24 -77 -110 42 -29 57 82 118 -25 56 120 118 -41 52 123 108 -3 45 89 70 -17 12 49 -109 27z"/>
   <path class="fil3" d="M12186 2378l-52 -153 237 -110 -47 -233 164 -112 -57 -83 -219 149 45 221 -247 114 78 231 98 -24z"/>
   <path class="fil5" d="M14086 2025c261,399 -94,954 -560,872 -84,-15 -171,4 -246,50l-257 159c-71,44 -160,25 -205,-44l-99 -151c-45,-68 -30,-163 34,-218 232,-199 331,-256 363,-423 91,-489 708,-645 970,-245z"/>
   <path class="fil2" d="M13685 2525c31,32 78,62 110,27 41,-46 -17,-79 -110,-27zm-110 -451c-19,-7 -69,14 -49,123 57,-50 74,-72 49,-123zm-103 171c-5,-22 -11,-47 -12,-71 -12,-140 96,-188 152,-152 37,23 52,77 31,127 -19,46 -60,79 -101,115 22,78 57,149 103,213 128,-77 219,-35 225,34 3,45 -25,91 -68,110 -26,11 -93,26 -172,-61 -215,152 -495,376 -496,376l-36 -49c1,-1 280,-223 494,-375 -44,-61 -78,-129 -102,-202 -245,213 -461,383 -469,389l-35 -50c15,-13 225,-176 486,-404z"/>
   <path class="fil1" d="M13287 2943c-2,2 -5,3 -7,4l-257 159c-71,44 -160,25 -205,-44l-99 -151c-45,-68 -30,-163 34,-218 103,-89 180,-149 237,-204l297 454z"/>
   <path class="fil6" d="M1726 10446c0,0 -8,-41 -10,-55 -2,-16 -4,-65 -4,-65 0,0 0,-171 12,-170 13,1 30,31 33,41 4,11 9,23 13,33 4,11 15,17 28,13 14,-4 8,-49 3,-64 -16,-48 -84,-166 -90,-179 -8,-16 46,-312 57,-415l0 0c22,-169 54,-341 56,-359l300 -662 -200 -205c0,0 -343,731 -356,770 -6,18 -28,412 -28,412 2,195 4,367 3,400 0,0 -28,98 -50,159 -22,62 -17,127 -20,145 -1,3 -16,65 -6,143 9,67 32,-1 32,-1 0,0 6,-128 16,-126 7,2 0,71 9,145 3,20 5,38 7,56 7,45 36,54 37,5 1,-17 1,-45 -2,-66 -3,-22 1,-43 1,-62 1,-37 1,-64 2,-63 2,1 7,-7 11,13 3,25 0,78 8,113 5,20 12,62 12,62 0,0 20,68 24,68 22,-1 22,-54 12,-80 2,-20 -7,-64 -7,-64 0,0 2,-94 16,-94 11,0 49,225 72,223 18,-2 9,-71 9,-71z"/>
   <path class="fil7" d="M2002 8948c0,0 -124,-22 -190,-46 -88,-33 -146,-62 -146,-62 0,0 96,-413 217,-664 50,-104 100,-154 170,-166 1,0 149,97 143,331 -2,55 -194,607 -194,607z"/>
   <path class="fil6" d="M2385 10337l161 1484c0,0 -79,314 -69,403 9,89 175,1258 175,1258l-7 66 0 193 615 0c0,0 -130,-60 -313,-179 -14,-9 -45,-37 -52,-93 -49,-360 47,-1562 47,-1562l76 -1565 -633 -5z"/>
   <path class="fil6" d="M1890 10649c-35,9 -88,1285 -117,1342 -182,358 -226,1448 -226,1448l-53 155 -56 190c0,0 182,50 277,-4l-10 -188 -10 -171 460 -1358 252 -1385 -517 -29z"/>
   <path class="fil3" d="M2806 8178c-75,-104 -381,-407 -415,-406 -99,1 -425,2 -488,35l0 71c2,319 42,636 122,945 56,215 109,444 103,527l1 1c189,188 486,173 658,-32 0,0 0,-229 26,-437 42,-327 177,-444 -7,-704z"/>
   <path class="fil6" d="M2291 7447c0,0 9,213 -10,293 -18,81 -43,87 116,112 63,9 123,24 123,24 0,0 -16,-119 -19,-169 -4,-82 19,-336 19,-336l-229 76z"/>
   <path class="fil8" d="M2413 7553c32,18 63,29 91,34 6,-101 16,-216 16,-216l-218 73c25,43 61,82 111,109z"/>
   <path class="fil6" d="M2342 6852c0,0 -91,32 -141,132 -51,100 -69,382 129,492 98,55 211,65 264,17 54,-49 47,-158 42,-248 -11,-179 -50,-450 -294,-393z"/>
   <path class="fil9" d="M2196 7205c11,47 -4,93 -34,102 -29,9 -63,-22 -74,-69 -11,-47 4,-92 34,-101 29,-9 63,21 74,68z"/>
   <path class="fil3" d="M1705 13592c-84,38 -174,14 -211,2l-58 191c0,0 183,54 279,0l-10 -193z"/>
   <path class="fil10" d="M1785 11407l0 0 0 0z"/>
   <path class="fil3" d="M2638 13790l640 0c24,-3 30,-23 21,-35 -17,-25 -91,-44 -175,-84 -147,16 -456,-88 -479,-124 -14,71 -20,240 -7,243z"/>
   <path class="fil6" d="M3923 8661c13,-17 54,-101 54,-101 0,0 43,-144 34,-143 -5,2 -23,22 -44,66 -13,26 -27,73 -40,96 -23,41 -49,58 -43,42 5,-11 21,-21 35,-45 34,-59 64,-156 51,-154 -11,2 -44,69 -81,120 -16,23 -61,51 -90,69 1,-13 4,-25 6,-32 4,-11 54,-78 35,-87 -20,-8 -141,138 -141,138l-50 84 -4 4 0 0c0,0 -604,236 -624,230 -47,-15 -210,-485 -210,-485l-337 61c-5,-3 355,699 422,734 59,30 686,-297 804,-367 162,-62 225,-136 252,-175 14,-20 68,-109 68,-109 0,0 12,-123 3,-124 -30,-4 -38,112 -38,112 0,0 -40,55 -47,62 -18,18 -15,4 -15,4z"/>
   <path class="fil7" d="M2256 8053c-46,196 200,631 200,631 0,0 350,-170 411,-243 0,0 -241,-399 -256,-425 -33,-56 -146,-172 -222,-151 -49,14 -133,188 -133,188z"/>
   <path class="fil11" d="M2312 7572c26,-179 323,-544 208,-697 -93,-123 -255,-86 -358,-51 -468,161 -441,749 -588,841 -268,167 -433,271 -452,646 -23,446 355,673 810,564 245,-58 310,-139 408,-369 44,-105 133,-430 109,-588 -22,-142 -158,-202 -137,-346z"/>
   <path class="fil6" d="M2489 7243c0,54 -19,96 -43,96 -23,0 -43,-42 -43,-96 0,-53 20,-96 43,-96 24,0 43,43 43,96z"/>
   <path class="fil1" d="M3076 11302l22 -880c4,-249 -46,-495 -144,-722l-167 -381c-67,22 -130,40 -201,49 -154,17 -305,0 -458,-18 -1,6 -1,11 -2,15 -28,130 -183,419 -248,814 -74,448 -101,1119 -92,1171 707,32 875,58 1290,-48z"/>
   <path class="fil0" d="M11882 6896l532 532c0,0 1014,397 1127,640 114,244 -102,233 -340,199 -237,-34 -912,-453 -912,-453l-617 -714 210 -204z"/>
   <path class="fil5" d="M13440 7962l-132 -47 -254 119c0,0 -132,89 -196,310 -64,221 0,1542 106,1755 107,212 476,-2137 476,-2137z"/>
   <path class="fil6" d="M14276 13260c0,0 94,60 102,88 7,28 76,328 50,363 -26,35 -120,18 -83,43 28,19 206,34 319,3 34,-9 18,-289 23,-332 7,-62 50,-203 24,-240 -13,-18 -86,-49 -151,-75 -69,-27 -146,-103 -146,-103l-138 253z"/>
   <path class="fil11" d="M14554 13108c0,0 -55,532 -120,572 -17,10 -108,18 -117,61 0,1 -2,45 26,46l345 -1c0,0 4,-262 1,-364 0,0 48,-262 33,-282 -16,-19 -168,-32 -168,-32z"/>
   <path class="fil6" d="M15627 13260c0,0 94,60 101,88 8,28 77,328 51,363 -26,35 -120,18 -83,43 28,19 205,34 319,3 33,-9 18,-289 23,-332 7,-62 50,-203 24,-240 -13,-18 -86,-49 -151,-75 -69,-27 -146,-103 -146,-103l-138 253z"/>
   <path class="fil7" d="M13932 9799c0,0 315,626 380,795l481 1220 1061 1248c0,0 -78,200 -195,254 0,0 -1279,-1033 -1385,-1195 -160,-248 -890,-1767 -890,-1767l-136 -292 684 -263z"/>
   <path class="fil3" d="M13169 9792l5 535c0,0 -228,1745 -184,1849 108,253 1294,1110 1294,1110l162 -277 -853 -952 323 -926c90,-215 282,-631 277,-864 -4,-200 -400,-664 -400,-664l-624 189z"/>
   <path class="fil0" d="M13653 10582c315,-72 569,-183 595,-270 12,-40 -163,-439 -293,-971 -42,-174 -34,-337 -101,-946 -15,-129 -68,-400 -268,-470 -70,-24 -110,-21 -110,-21 -1,0 -254,2 -370,66 -28,39 -135,251 -163,829 -12,252 -63,1062 -52,1193 1,20 3,39 5,57 46,350 413,611 757,533z"/>
   <path class="fil6" d="M13098 8365l1 0c128,-14 450,-436 450,-436l-1 -1 -199 -315c0,0 -293,53 -235,142 57,89 89,303 89,303 -1,3 -2,6 -4,9 -20,44 -86,173 -101,298z"/>
   <path class="fil8" d="M13114 7755c-58,-89 235,-142 235,-142l17 26c0,22 -2,42 -8,60 -32,89 -108,168 -187,205 -14,-55 -34,-112 -57,-149z"/>
   <path class="fil6" d="M13184 7115c6,-6 228,359 175,509 -53,151 -233,271 -339,217 -118,-59 -296,-478 -189,-656 108,-178 353,-70 353,-70z"/>
   <path class="fil11" d="M12862 6951c131,-29 365,10 496,103 162,113 167,315 94,447 -73,132 -29,229 -29,229 0,0 -227,-14 -273,-169 -19,-64 5,-108 -39,-145 -34,-28 -62,-110 -95,-176 0,0 -147,-78 -203,-14 -19,22 -118,-239 49,-275z"/>
   <path class="fil6" d="M13088 7444c20,48 59,77 86,66 28,-12 35,-60 15,-107 -20,-48 -59,-78 -87,-66 -27,11 -34,60 -14,107z"/>
   <path class="fil11" d="M15906 13108c0,0 -56,532 -121,572 -17,10 -108,18 -117,61 0,1 -3,46 26,46l345 -1c0,0 3,-262 1,-364 0,0 48,-262 32,-282 -15,-19 -166,-32 -166,-32z"/>
   <path class="fil3" d="M9663 13785c-1870,147 -2087,-2365 -198,-2513 1861,-147 2061,2367 198,2513zm-1381 -3135c-274,-573 -350,-1429 -51,-2107 504,-1146 1889,-1613 1787,-2911 -26,-327 -171,-590 -385,-759 -564,-446 -1472,-210 -2119,101 -414,199 -798,480 -1153,845l-180 -2292c778,-552 1718,-840 2657,-914 1924,-151 3409,570 3561,2494 137,1755 -1049,2533 -1844,3410 -442,487 -542,862 -507,1297 17,224 102,502 237,679l-2003 157z"/>
   <path class="fil6" d="M11597 7012c-4,-16 9,-3 -15,-127 -7,-36 -29,-74 -46,-94 -9,-11 -29,-29 -42,-37 -21,-13 -38,8 -34,20 4,12 26,52 31,64 4,12 6,41 -4,50 -10,10 -164,-168 -174,-183 -8,-13 -27,-71 -27,-71 0,0 -13,-42 -30,-32 -10,7 -22,42 9,110 27,60 64,108 60,111 -11,9 -78,-71 -78,-71 0,0 -24,-45 -40,-61 -10,-30 -28,-67 -47,-53 -3,3 9,67 9,67 0,0 24,42 34,62 17,37 58,81 71,105 12,20 1,15 0,17 -1,2 -18,-20 -45,-52 -13,-17 -31,-32 -44,-54 -12,-19 -32,-44 -44,-59 -35,-41 -53,-13 -27,31 10,16 21,35 33,53 44,71 98,127 93,133 -7,9 -100,-98 -100,-98 0,0 -66,-44 -27,21 45,75 95,123 97,125 16,13 57,77 118,116 61,38 159,97 159,97 12,13 40,58 80,121l148 -178c-52,-54 -116,-122 -118,-133z"/>
   <path class="fil4" d="M11480 7262l204 -178 700 691c0,0 1084,95 1087,96l44 13c393,136 231,457 155,507 -176,115 -1156,46 -1470,-149 -259,-160 -720,-980 -720,-980z"/>
   <path class="fil6" d="M4183 8253c8,29 12,38 22,58 64,124 213,302 213,302l115 -277c0,0 -19,-87 -51,-211 -112,31 -217,49 -299,128z"/>
   <path class="fil0" d="M4842 8013c0,0 -641,295 -662,289 -13,-3 -263,-449 -266,-869 -1,-194 188,-427 398,-380 106,23 104,54 261,297 157,243 269,663 269,663z"/>
   <path class="fil6" d="M5389 13297l-15 269c-5,34 -28,119 -28,150 0,116 519,-99 403,-151 -11,-5 -66,-40 -69,-80 -6,-61 -19,-184 -19,-184l-272 -4z"/>
   <path class="fil11" d="M5748 13564c0,0 -122,36 -185,45 -62,9 -144,-66 -188,-46 -49,22 -47,223 -47,223 0,0 653,57 837,-2 72,-23 -169,-137 -417,-220z"/>
   <path class="fil6" d="M4329 13297l-16 269c-5,34 -27,119 -27,150 0,116 518,-99 402,-151 -10,-5 -82,-66 -85,-106 -6,-61 -3,-158 -3,-158l-271 -4z"/>
   <path class="fil11" d="M4687 13564c0,0 -122,36 -184,45 -63,9 -145,-66 -189,-46 -48,22 -50,223 -50,223 0,0 655,67 840,-2 71,-27 -168,-137 -417,-220z"/>
   <path class="fil6" d="M4487 8402l457 -683c2,-6 6,-18 12,-37 23,-68 71,-208 113,-349l0 -1c13,-49 41,-135 68,-218 30,-92 67,-206 68,-225 -1,-3 -3,-9 -6,-17 -17,-47 -39,-157 -47,-205 -5,-31 -11,-105 23,-105 54,0 29,74 53,121 9,-31 28,-93 37,-155l9 -145c2,-11 -9,-91 29,-91l1 0c34,2 33,87 48,231 4,-16 8,-36 12,-54 -1,-10 6,-54 11,-76 -7,-41 -3,-104 37,-98 20,3 19,91 19,91 0,13 -2,106 -1,124 4,-31 20,-165 52,-165 26,0 28,36 27,65 0,17 -17,161 -17,178 12,-22 26,-149 39,-149 50,0 32,181 13,228 -1,5 -3,15 -5,26 -7,32 -17,86 -44,135 -32,58 -76,151 -83,165 -5,29 -20,133 -39,263 -8,56 -17,118 -27,181l0 0c-2,14 -11,58 -48,222 -49,225 -54,234 -56,238 -22,41 -514,755 -535,785l-12 18 -208 -298z"/>
   <path class="fil8" d="M5337 6809c0,0 -37,-101 -103,-101 0,0 36,-14 68,13 32,26 35,88 35,88z"/>
   <path class="fil6" d="M4377 6614l-59 397c0,0 224,192 355,151 109,-34 34,-187 34,-187 0,0 -58,-211 -40,-322 17,-111 -290,-39 -290,-39z"/>
   <path class="fil8" d="M4419 6734c56,28 167,67 254,76 -9,-55 -13,-114 -6,-157 8,-52 -53,-64 -121,-62 -90,8 -169,23 -169,23l-11 76c16,19 34,35 53,44z"/>
   <path class="fil6" d="M4094 6156c-9,0 89,444 240,520 151,76 377,36 419,-83 47,-132 -124,-584 -336,-642 -213,-57 -323,205 -323,205z"/>
   <path class="fil11" d="M4269 5749c-121,74 -176,185 -195,230 -57,29 -125,91 -158,258 -41,206 103,365 256,413 153,48 179,155 179,155l15 -116c0,0 -34,-101 -85,-151 -51,-51 24,-125 31,-185 5,-46 -27,-136 -20,-212 0,0 84,-137 168,-171 143,-58 -36,-316 -191,-221z"/>
   <path class="fil6" d="M4334 6430c19,52 11,102 -18,114 -30,11 -70,-21 -90,-72 -20,-51 -12,-102 18,-113 30,-12 70,20 90,71z"/>
   <path class="fil6" d="M4897 8413l881 -153c0,0 -100,-270 -136,-270 -36,0 -666,294 -666,294l-50 107 -29 22z"/>
   <path class="fil11" d="M4446 9057c0,0 -88,454 -52,798 36,343 39,1565 39,1565l-137 1954 324 7c0,0 385,-1953 378,-1903 -8,50 129,-1375 129,-1375l-459 -1088 -222 42z"/>
   <path class="fil11" d="M4532 9036c0,0 -57,408 14,587 72,179 615,1936 622,2079 7,144 187,1727 187,1727l378 -11 81 -1761 -171 -2212 -166 -559 -945 150z"/>
   <path class="fil6" d="M4318 7011c0,0 93,65 180,57 86,-7 209,-93 209,-93l-17 -61c0,0 -224,-35 -230,-31 -6,3 -142,128 -142,128z"/>
   <path class="fil6" d="M5309 7977c0,0 333,336 484,278 150,-57 212,-253 -155,-539 -328,-257 -329,261 -329,261z"/>
   <path class="fil4" d="M5535 8391c-50,-287 -408,-1181 -437,-1346 -14,-80 -208,-82 -392,-72 -195,11 -388,38 -388,38 0,0 -172,30 -248,106 -76,76 -96,285 13,684 86,314 193,486 245,715 11,77 20,153 32,241 20,342 0,795 0,795 0,0 938,207 1289,-108 0,0 -64,-758 -114,-1053z"/>
   <path class="fil0" d="M5774 7773c0,0 -368,325 -390,325 -13,0 -525,-402 -643,-732 -65,-182 72,-386 228,-385 108,0 157,30 371,223 215,193 434,569 434,569z"/>
   <path class="fil3" d="M11398 1343l-798 540c-81,55 -192,34 -246,-47l-540 -798c-55,-81 -34,-191 47,-246l798 -540c81,-55 191,-34 246,47l540 798c55,81 34,192 -47,246z"/>
   <path class="fil2" d="M10996 777c140,207 86,488 -121,628 -206,139 -487,85 -627,-121 -139,-207 -85,-488 121,-628 207,-139 488,-85 627,121z"/>
   <path class="fil3" d="M10474 845l185 202c14,15 12,38 -2,51 -15,14 -38,13 -52,-2 -2,-2 -4,-5 -5,-8l-126 -243z"/>
   <path class="fil3" d="M10615 1048l279 -156 -244 208c-13,11 -33,9 -44,-4 -11,-13 -10,-33 4,-44 1,-1 3,-3 5,-4z"/>
   <path class="fil5" d="M3530 5716l-1617 0c-292,0 -528,-237 -528,-528l0 -335c0,-291 236,-527 528,-527l1617 0c291,0 527,236 527,527l0 335c0,291 -236,528 -527,528z"/>
   <path class="fil5" d="M3740 5191l658 295 -441 -617 -217 322z"/>
   <path class="fil2" d="M2275 4976c0,56 -52,102 -115,102 -64,0 -116,-46 -116,-102 0,-57 52,-103 116,-103 63,0 115,46 115,103z"/>
   <path class="fil2" d="M2811 4976c0,56 -52,102 -115,102 -64,0 -115,-46 -115,-102 0,-57 51,-103 115,-103 64,0 115,46 115,103z"/>
   <path class="fil2" d="M3347 4976c0,56 -51,102 -115,102 -64,0 -115,-46 -115,-102 0,-57 51,-103 115,-103 64,0 115,46 115,103z"/>
   <path class="fil5" d="M9558 273l-109 -231 90 -42 62 131 150 -91 51 85 -244 148z"/>
   <path class="fil3" d="M3419 3599l-240 86 -34 -94 137 -48 -76 -159 89 -43 124 258z"/>
   <path class="fil1" d="M13387 1270c18,57 36,114 54,171 14,45 24,117 68,142 10,7 28,4 34,-9 21,-47 -10,-108 -25,-154 -18,-57 -36,-114 -54,-171 -16,-48 -92,-28 -77,21z"/>
   <path class="fil1" d="M13990 1209c-92,315 -93,305 -86,337 5,25 39,33 56,15 22,-22 16,-16 105,-332 14,-48 -61,-69 -75,-20z"/>
   <path class="fil1" d="M14342 1909c54,-26 108,-52 163,-78 48,-23 110,-41 144,-85 14,-20 -6,-45 -26,-46 -54,-1 -111,40 -158,63 -55,26 -109,52 -163,79 -45,22 -6,89 40,67z"/>
   <path class="fil1" d="M14164 2855c55,72 111,146 174,212 34,35 84,-17 53,-53 -58,-71 -118,-139 -175,-211 -29,-38 -81,15 -52,52z"/>
   <path class="fil1" d="M14369 2488c50,22 101,43 152,63 47,18 102,51 153,43 27,-3 30,-39 15,-56 -19,-21 -29,-19 -140,-62 -50,-19 -100,-39 -151,-58 -40,-15 -69,53 -29,70z"/>
  </g>
 </g>
</svg>
